<svg xmlns="http://www.w3.org/2000/svg" width="512" height="512" x="0" y="0" version="1.0" viewBox="0 0 512 512"><style>.st0{fill:#e5e5e5}.st1{fill:#15aca3}.st2{fill:#e2b503}.st3{fill:#d9534f}.st4{fill:#c792c6}</style><path d="M349.5 246.5c-3.7-3.8-3.7-10.1 0-14 1.5-1.6 3.7-2.5 5.9-2.5h132.2c2.2 0 4.3.9 5.9 2.5 3.7 3.8 3.7 10.1 0 14-1.5 1.6-3.7 2.5-5.9 2.5H355.4c-2.2 0-4.4-.9-5.9-2.5z" class="st0"/><path d="M281.5 246.5c-3.7-3.8-3.7-10.1 0-14 1.5-1.6 3.7-2.5 5.9-2.5h42.2c2.2 0 4.3.9 5.9 2.5 3.7 3.8 3.7 10.1 0 14-1.5 1.6-3.7 2.5-5.9 2.5h-42.2c-2.2 0-4.4-.9-5.9-2.5z" class="st1"/><path d="M159.5 246.5c-3.7-3.8-3.7-10.1 0-14 1.5-1.6 3.7-2.5 5.9-2.5h91.2c2.2 0 4.3.9 5.9 2.5 3.7 3.8 3.7 10.1 0 14-1.5 1.6-3.7 2.5-5.9 2.5h-91.2c-2.2 0-4.4-.9-5.9-2.5z" class="st2"/><path d="M19.5 246.5c-3.7-3.8-3.7-10.1 0-14 1.5-1.6 3.7-2.5 5.9-2.5h108.2c2.2 0 4.3.9 5.9 2.5 3.7 3.8 3.7 10.1 0 14-1.5 1.6-3.7 2.5-5.9 2.5H25.4c-2.2 0-4.4-.9-5.9-2.5zM24.5 213.5c-3.7-3.8-3.7-10.1 0-14 1.5-1.6 3.7-2.5 5.9-2.5h87.2c2.2 0 4.3.9 5.9 2.5 3.7 3.8 3.7 10.1 0 14-1.5 1.6-3.7 2.5-5.9 2.5H30.4c-2.2 0-4.4-.9-5.9-2.5z" class="st0"/><path d="M142.5 213.5c-3.7-3.8-3.7-10.1 0-14 1.5-1.6 3.7-2.5 5.9-2.5h57.2c2.2 0 4.3.9 5.9 2.5 3.7 3.8 3.7 10.1 0 14-1.5 1.6-3.7 2.5-5.9 2.5h-57.2c-2.2 0-4.4-.9-5.9-2.5z" class="st3"/><path d="M296.5 213.5c-3.7-3.8-3.7-10.1 0-14 1.5-1.6 3.7-2.5 5.9-2.5h95.2c2.2 0 4.3.9 5.9 2.5 3.7 3.8 3.7 10.1 0 14-1.5 1.6-3.7 2.5-5.9 2.5h-95.2c-2.2 0-4.4-.9-5.9-2.5zM422.5 213.5c-3.7-3.8-3.7-10.1 0-14 1.5-1.6 3.7-2.5 5.9-2.5h54.2c2.2 0 4.3.9 5.9 2.5 3.7 3.8 3.7 10.1 0 14-1.5 1.6-3.7 2.5-5.9 2.5h-54.2c-2.2 0-4.4-.9-5.9-2.5zM231.6 199.5c1.5-1.6 3.7-2.5 5.9-2.5h34.2c2.2 0 4.3.9 5.9 2.5 3.7 3.8 3.7 10.1 0 14-1.5 1.6-3.7 2.5-5.9 2.5h-34.2c-2.2 0-4.4-.9-5.9-2.5-3.7-3.8-3.7-10.1 0-14M231.6 166.5c1.5-1.6 3.7-2.5 5.9-2.5h34.2c2.2 0 4.3.9 5.9 2.5 3.7 3.8 3.7 10.1 0 14-1.5 1.6-3.7 2.5-5.9 2.5h-34.2c-2.2 0-4.4-.9-5.9-2.5-3.7-3.8-3.7-10.1 0-14M384.5 180.5c-3.7-3.9-3.7-10.1 0-14 1.5-1.6 3.7-2.5 5.9-2.5h82.3c2.2 0 4.3.9 5.9 2.5 3.7 3.9 3.7 10.1 0 14-1.5 1.6-3.7 2.5-5.9 2.5h-82.3c-2.2 0-4.4-.9-5.9-2.5z" class="st0"/><path d="M301.5 180.5c-3.7-3.9-3.7-10.1 0-14 1.5-1.6 3.7-2.5 5.9-2.5h57.3c2.2 0 4.3.9 5.9 2.5 3.7 3.9 3.7 10.1 0 14-1.5 1.6-3.7 2.5-5.9 2.5h-57.3c-2.2 0-4.4-.9-5.9-2.5z" class="st2"/><path d="M142.5 180.5c-3.7-3.9-3.7-10.1 0-14 1.5-1.6 3.7-2.5 5.9-2.5h57.3c2.2 0 4.3.9 5.9 2.5 3.7 3.9 3.7 10.1 0 14-1.5 1.6-3.7 2.5-5.9 2.5h-57.3c-2.2 0-4.4-.9-5.9-2.5z" class="st4"/><path d="M34.5 180.5c-3.7-3.9-3.7-10.1 0-14 1.5-1.6 3.7-2.5 5.9-2.5h77.3c2.2 0 4.3.9 5.9 2.5 3.7 3.9 3.7 10.1 0 14-1.5 1.6-3.7 2.5-5.9 2.5H40.4c-2.2 0-4.4-.9-5.9-2.5zM367.5 147.5c-3.7-3.9-3.7-10.1 0-14 1.5-1.6 3.7-2.5 5.9-2.5h83.3c2.2 0 4.3.9 5.9 2.5 3.7 3.9 3.7 10.1 0 14-1.5 1.6-3.7 2.5-5.9 2.5h-83.3c-2.2 0-4.4-.9-5.9-2.5z" class="st0"/><path d="M265.5 147.5c-3.7-3.9-3.7-10.1 0-14 1.5-1.6 3.7-2.5 5.9-2.5h76.3c2.2 0 4.3.9 5.9 2.5 3.7 3.9 3.7 10.1 0 14-1.5 1.6-3.7 2.5-5.9 2.5h-76.3c-2.2 0-4.4-.9-5.9-2.5z" class="st4"/><path d="M157.5 147.5c-3.7-3.9-3.7-10.1 0-14 1.5-1.6 3.7-2.5 5.9-2.5h77.3c2.2 0 4.3.9 5.9 2.5 3.7 3.9 3.7 10.1 0 14-1.5 1.6-3.7 2.5-5.9 2.5h-77.3c-2.2 0-4.4-.9-5.9-2.5z" class="st1"/><path d="M102.4 133.5c1.5-1.6 3.7-2.5 5.9-2.5h26.2c2.2 0 4.3.9 5.9 2.5 3.7 3.8 3.7 10.1 0 14-1.5 1.6-3.7 2.5-5.9 2.5h-26.2c-2.2 0-4.4-.9-5.9-2.5-3.7-3.8-3.7-10.1 0-14M50.5 133.5c1.5-1.6 3.7-2.5 5.9-2.5h21.2c2.2 0 4.3.9 5.9 2.5 3.7 3.8 3.7 10.1 0 14-1.5 1.6-3.7 2.5-5.9 2.5H56.4c-2.2 0-4.4-.9-5.9-2.5-3.7-3.8-3.7-10.1 0-14M337.5 114.5c-3.7-3.8-3.7-10.2 0-14 1.5-1.6 3.7-2.5 5.9-2.5h90.3c2.2 0 4.3.9 5.9 2.5 3.7 3.8 3.7 10.1 0 14-1.5 1.6-3.7 2.5-5.9 2.5h-90.3c-2.2 0-4.4-.9-5.9-2.5z" class="st0"/><path d="M194.5 114.5c-3.7-3.8-3.7-10.2 0-14 1.5-1.6 3.7-2.5 5.9-2.5h117.3c2.2 0 4.3.9 5.9 2.5 3.7 3.8 3.7 10.1 0 14-1.5 1.6-3.7 2.5-5.9 2.5H200.4c-2.2 0-4.4-.9-5.9-2.5z" class="st3"/><path d="M74.5 114.5c-3.7-3.8-3.7-10.2 0-14 1.5-1.6 3.7-2.5 5.9-2.5h84.3c2.2 0 4.3.9 5.9 2.5 3.7 3.8 3.7 10.1 0 14-1.5 1.6-3.7 2.5-5.9 2.5H80.4c-2.2 0-4.4-.9-5.9-2.5zM240.5 81.5c-3.7-3.8-3.7-10.2 0-14 1.5-1.6 3.7-2.5 5.9-2.5h152.3c2.2 0 4.3.9 5.9 2.5 3.7 3.8 3.7 10.1 0 14-1.5 1.6-3.7 2.5-5.9 2.5H246.4c-2.2 0-4.4-.9-5.9-2.5zM108.5 81.5c-3.5-3.4-3.5-10.6 0-14 1.5-1.6 3.7-2.5 5.9-2.5h101.3c2.2 0 4.3.9 5.9 2.5 3.5 3.4 3.5 10.6 0 14-1.5 1.6-3.7 2.5-5.9 2.5H114.4c-2.2 0-4.4-.9-5.9-2.5zM167.5 48.5c-3.7-3.8-3.7-10.2 0-14 1.5-1.6 3.7-2.5 5.9-2.5h168.3c2.2 0 4.3.9 5.9 2.5 3.7 3.8 3.7 10.1 0 14-1.5 1.6-3.7 2.5-5.9 2.5H173.4c-2.2 0-4.4-.9-5.9-2.5zM19.3 279.5c-3.7-3.9-3.7-10.1 0-14 1.5-1.6 3.7-2.5 5.9-2.5h127.3c2.2 0 4.3.9 5.9 2.5 3.7 3.9 3.7 10.1 0 14-1.5 1.6-3.7 2.5-5.9 2.5H25.2c-2.2 0-4.4-.9-5.9-2.5z" class="st0"/><path d="M178.1 279.4c-4.3-3.6-4.3-10.2 0-13.8 2-1.7 4.5-2.6 7.1-2.6h48.5c2.6 0 5.1.9 7.1 2.6 4.3 3.6 4.3 10.2 0 13.8-2 1.7-4.5 2.6-7.1 2.6h-48.5c-2.6 0-5.1-.9-7.1-2.6z" class="st4"/><path d="M368.5 279.5c-3.7-3.9-3.7-10.1 0-14 1.5-1.6 3.7-2.5 5.9-2.5h113.3c2.2 0 4.3.9 5.9 2.5 3.7 3.9 3.7 10.1 0 14-1.5 1.6-3.7 2.5-5.9 2.5H374.4c-2.2 0-4.4-.9-5.9-2.5z" class="st0"/><path d="M261.1 279.4c-4.3-3.6-4.3-10.2 0-13.8 2-1.7 4.5-2.6 7.1-2.6h77.5c2.6 0 5.1.9 7.1 2.6 4.3 3.6 4.3 10.2 0 13.8-2 1.7-4.5 2.6-7.1 2.6h-77.5c-2.6 0-5.1-.9-7.1-2.6z" class="st3"/><path d="M23.5 312.5c-3.7-3.9-3.7-10.1 0-14 1.5-1.6 3.7-2.5 5.9-2.5h176.3c2.2 0 4.3.9 5.9 2.5 3.7 3.9 3.7 10.1 0 14-1.5 1.6-3.7 2.5-5.9 2.5H29.4c-2.2 0-4.4-.9-5.9-2.5z" class="st0"/><path d="M302.1 312.4c-4.3-3.6-4.3-10.2 0-13.8 2-1.7 4.5-2.6 7.1-2.6h53.5c2.6 0 5.1.9 7.1 2.6 4.3 3.6 4.3 10.2 0 13.8-2 1.7-4.5 2.6-7.1 2.6h-53.5c-2.6 0-5.1-.9-7.1-2.6z" class="st4"/><path d="M384.5 312.5c-3.7-3.9-3.7-10.1 0-14 1.5-1.6 3.7-2.5 5.9-2.5h93.3c2.2 0 4.3.9 5.9 2.5 3.7 3.9 3.7 10.1 0 14-1.5 1.6-3.7 2.5-5.9 2.5h-93.3c-2.2 0-4.4-.9-5.9-2.5zM231.6 298.5c1.5-1.6 3.7-2.5 5.9-2.5h34.2c2.2 0 4.3.9 5.9 2.5 3.7 3.8 3.7 10.1 0 14-1.5 1.6-3.7 2.5-5.9 2.5h-34.2c-2.2 0-4.4-.9-5.9-2.5-3.7-3.8-3.7-10.1 0-14M233 331.5c1.5-1.6 3.7-2.5 5.9-2.5h34.2c2.2 0 4.3.9 5.9 2.5 3.7 3.8 3.7 10.1 0 14-1.5 1.6-3.7 2.5-5.9 2.5h-34.2c-2.2 0-4.4-.9-5.9-2.5-3.7-3.8-3.7-10.1 0-14M33.5 345.5c-3.7-3.9-3.7-10.1 0-14 1.5-1.6 3.7-2.5 5.9-2.5h78.3c2.2 0 4.3.9 5.9 2.5 3.7 3.9 3.7 10.1 0 14-1.5 1.6-3.7 2.5-5.9 2.5H39.4c-2.2 0-4.4-.9-5.9-2.5z" class="st0"/><path d="M142.5 345.5c-3.7-3.9-3.7-10.1 0-14 1.5-1.6 3.7-2.5 5.9-2.5h62.3c2.2 0 4.3.9 5.9 2.5 3.7 3.9 3.7 10.1 0 14-1.5 1.6-3.7 2.5-5.9 2.5h-62.3c-2.2 0-4.4-.9-5.9-2.5zM302.1 345.4c-4.3-3.6-4.3-10.2 0-13.8 2-1.7 4.5-2.6 7.1-2.6h53.5c2.6 0 5.1.9 7.1 2.6 4.3 3.6 4.3 10.2 0 13.8-2 1.7-4.5 2.6-7.1 2.6h-53.5c-2.6 0-5.1-.9-7.1-2.6z" class="st2"/><path d="M384.5 345.5c-3.7-3.9-3.7-10.1 0-14 1.5-1.6 3.7-2.5 5.9-2.5h83.3c2.2 0 4.3.9 5.9 2.5 3.7 3.9 3.7 10.1 0 14-1.5 1.6-3.7 2.5-5.9 2.5h-83.3c-2.2 0-4.4-.9-5.9-2.5zM49.5 378.5c-3.7-3.9-3.7-10.1 0-14 1.5-1.6 3.7-2.5 5.9-2.5h79.3c2.2 0 4.3.9 5.9 2.5 3.7 3.9 3.7 10.1 0 14-1.5 1.6-3.7 2.5-5.9 2.5H55.4c-2.2 0-4.4-.9-5.9-2.5z" class="st0"/><path d="M160.1 378.4c-4.3-3.6-4.3-10.2 0-13.8 2-1.7 4.5-2.6 7.1-2.6h38.5c2.6 0 5.1.9 7.1 2.6 4.3 3.6 4.3 10.2 0 13.8-2 1.7-4.5 2.6-7.1 2.6h-38.5c-2.6 0-5.1-.9-7.1-2.6z" class="st3"/><path d="M231.1 378.4c-4.3-3.6-4.3-10.2 0-13.8 2-1.7 4.5-2.6 7.1-2.6h107.5c2.6 0 5.1.9 7.1 2.6 4.3 3.6 4.3 10.2 0 13.8-2 1.7-4.5 2.6-7.1 2.6H238.2c-2.6 0-5.1-.9-7.1-2.6z" class="st1"/><path d="M367.5 378.5c-3.7-3.9-3.7-10.1 0-14 1.5-1.6 3.7-2.5 5.9-2.5h84.3c2.2 0 4.3.9 5.9 2.5 3.7 3.9 3.7 10.1 0 14-1.5 1.6-3.7 2.5-5.9 2.5h-84.3c-2.2 0-4.4-.9-5.9-2.5zM72.5 411.5c-3.7-3.9-3.7-10.1 0-14 1.5-1.6 3.7-2.5 5.9-2.5h86.3c2.2 0 4.3.9 5.9 2.5 3.7 3.9 3.7 10.1 0 14-1.5 1.6-3.7 2.5-5.9 2.5H78.4c-2.2 0-4.4-.9-5.9-2.5z" class="st0"/><path d="M194.5 411.5c-3.7-3.9-3.7-10.1 0-14 1.5-1.6 3.7-2.5 5.9-2.5h117.3c2.2 0 4.3.9 5.9 2.5 3.7 3.9 3.7 10.1 0 14-1.5 1.6-3.7 2.5-5.9 2.5H200.4c-2.2 0-4.4-.9-5.9-2.5z" class="st4"/><path d="M337.5 411.5c-3.7-3.9-3.7-10.1 0-14 1.5-1.6 3.7-2.5 5.9-2.5h91.3c2.2 0 4.3.9 5.9 2.5 3.7 3.9 3.7 10.1 0 14-1.5 1.6-3.7 2.5-5.9 2.5h-91.3c-2.2 0-4.4-.9-5.9-2.5zM295.5 444.5c-3.7-3.9-3.7-10.1 0-14 1.5-1.6 3.7-2.5 5.9-2.5h100.3c2.2 0 4.3.9 5.9 2.5 3.7 3.9 3.7 10.1 0 14-1.5 1.6-3.7 2.5-5.9 2.5H301.4c-2.2 0-4.4-.9-5.9-2.5zM106.5 444.5c-3.7-3.9-3.7-10.1 0-14 1.5-1.6 3.7-2.5 5.9-2.5h158.3c2.2 0 4.3.9 5.9 2.5 3.7 3.9 3.7 10.1 0 14-1.5 1.6-3.7 2.5-5.9 2.5H112.4c-2.2 0-4.4-.9-5.9-2.5zM162.5 477.5c-3.7-3.9-3.7-10.1 0-14 1.5-1.6 3.7-2.5 5.9-2.5h177.3c2.2 0 4.3.9 5.9 2.5 3.7 3.9 3.7 10.1 0 14-1.5 1.6-3.7 2.5-5.9 2.5H168.4c-2.2 0-4.4-.9-5.9-2.5z" class="st0"/></svg>