<svg xmlns="http://www.w3.org/2000/svg" width="273" height="72" x="0" y="0" version="1.0" viewBox="0 0 273 72"><linearGradient id="a" x1="327.272" x2="328.435" y1="-235.03" y2="-236.157" gradientTransform="matrix(94.045 0 0 94.072 -30797.893 22201.137)" gradientUnits="userSpaceOnUse"><stop offset="0" stop-color="#00aeff"/><stop offset="1" stop-color="#3369e7"/></linearGradient><path fill="url(#a)" d="M13.5 3.4h48c4.7 0 8.6 3.8 8.6 8.6v48c0 4.7-3.8 8.6-8.6 8.6h-48c-4.7 0-8.6-3.8-8.6-8.6V12c0-4.7 3.9-8.6 8.6-8.6z"/><path fill="#fff" d="M38.3 19.9c-10.2 0-18.4 8.2-18.4 18.4s8.2 18.4 18.4 18.4 18.4-8.2 18.4-18.4-8.3-18.4-18.4-18.4zm0 31.4c-7.2 0-13-5.8-13-13s5.8-13 13-13 13 5.8 13 13-5.9 13-13 13zm0-23.3v9.7c0 .3.3.5.6.3l8.6-4.4c.2-.1.3-.3.2-.5-1.8-3.1-5.1-5.3-8.9-5.4-.3-.1-.5.1-.5.3zm-12.1-7.1l-1.1-1.1c-1.1-1.1-2.9-1.1-4 0l-1.3 1.3c-1.1 1.1-1.1 2.9 0 4l1.1 1.1c.2.2.4.1.6 0a26.219 26.219 0 0 1 4.7-4.7c.2-.2.2-.4 0-.6zM44.3 18v-2.2c0-1.6-1.3-2.8-2.8-2.8h-6.6c-1.6 0-2.8 1.3-2.8 2.8V18c0 .3.2.4.5.4 1.8-.5 3.8-.8 5.7-.8 1.9 0 3.7.3 5.5.8.2 0 .5-.2.5-.4z"/><path fill="#182359" d="M167.8 53.3c0 5.3-1.3 9.1-4.1 11.6-2.7 2.5-6.8 3.7-12.4 3.7-2 0-6.3-.4-9.6-1.1l1.2-6.1c2.8.6 6.6.8 8.5.8 3.1 0 5.3-.6 6.6-1.9 1.3-1.3 2-3.1 2-5.6v-1.3c-.8.4-1.8.8-3 1.1-1.2.4-2.7.6-4.3.6-2.1 0-4.1-.3-5.8-1-1.8-.7-3.3-1.7-4.5-3-1.2-1.3-2.2-2.9-2.9-4.9-.7-2-1-5.5-1-8 0-2.4.4-5.4 1.1-7.4.8-2 1.8-3.8 3.3-5.2 1.4-1.4 3.2-2.5 5.2-3.4 2-.8 4.4-1.3 7-1.3 2.5 0 4.8.3 7.1.7 2.3.4 4.2.8 5.7 1.2l-.1 30.5zM146.3 38c0 3.2.7 6.8 2.1 8.3s3.3 2.3 5.5 2.3c1.2 0 2.4-.2 3.5-.5s2-.7 2.6-1.2V27.7c-.6-.1-2.9-.6-5.1-.7-2.8-.1-4.9 1.1-6.4 2.9-1.4 1.9-2.2 5.1-2.2 8.1zm58.2 0c0 2.6-.4 4.6-1.1 6.7s-1.9 4-3.3 5.5-3.1 2.7-5.1 3.5c-2 .8-5 1.3-6.5 1.3s-4.5-.5-6.5-1.3-3.6-2-5-3.5-2.5-3.4-3.3-5.5-1.2-4.1-1.2-6.7.4-5.1 1.1-7.3 1.9-4 3.3-5.5 3.1-2.7 5.1-3.5c2-.8 4.1-1.2 6.4-1.2s4.5.4 6.5 1.2c2 .8 3.7 2 5.1 3.5 1.4 1.5 2.5 3.3 3.3 5.5.7 2.2 1.2 4.7 1.2 7.3zm-7.9 0c0-3.3-.7-6.1-2.2-8.1-1.4-2-3.4-2.9-6-2.9-2.5 0-4.5 1-6 2.9-1.4 2-2.1 4.7-2.1 8.1 0 3.4.7 5.7 2.1 7.6 1.4 2 3.4 2.9 6 2.9 2.5 0 4.5-1 6-2.9 1.4-1.9 2.2-4.2 2.2-7.6zm25.1 17.1C209 55.2 209 44.9 209 43.2V6.7l7.7-1.2v36.3c0 .9 0 6.8 5 6.8v6.5zm13.6 0h-7.8V21.7l7.8-1.2v34.6zm-3.9-38.2c2.6 0 4.7-2.1 4.7-4.7s-2.1-4.7-4.7-4.7-4.7 2.1-4.7 4.7 2.1 4.7 4.7 4.7zm23.2 3.6c2.5 0 4.7.3 6.4.9 1.7.6 3.1 1.5 4.2 2.6 1 1.1 1.8 2.7 2.2 4.3.5 1.6.7 3.4.7 5.4v19.9c-1.2.3-3 .6-5.4.9-2.4.4-5.1.5-8.1.5-2 0-3.8-.2-5.5-.6-1.7-.4-3.1-1-4.2-1.8-1.2-.8-2.1-1.9-2.7-3.3-.7-1.3-1-3.2-1-5.2 0-1.9.4-3.1 1.1-4.4.8-1.3 1.8-2.4 3-3.2 1.3-.8 2.7-1.4 4.4-1.8 1.7-.4 3.4-.5 5.3-.5.8 0 1.7.1 2.7.2.9.1 1.9.3 3 .5v-1.3c0-.9-.1-1.7-.3-2.5-.2-.8-.6-1.5-1.1-2.1-.5-.6-1.2-1.1-2.1-1.4s-2-.6-3.3-.6c-1.8 0-3.4.2-4.9.5-1.5.3-2.7.6-3.6.9l-.9-6.3c1-.3 2.4-.7 4.3-1s3.7-.6 5.8-.6zm.6 28.1c2.4 0 4.1-.1 5.4-.4v-7.9c-.4-.1-1-.3-1.9-.4s-1.7-.2-2.7-.2c-.8 0-1.7.1-2.6.2-.9.1-1.7.4-2.4.7-.7.3-1.3.8-1.7 1.4-.4.6-.6 1-.6 1.9 0 1.8.6 2.9 1.8 3.6 1.2.7 2.8 1.1 4.7 1.1zM102.7 20.7c2.5 0 4.7.3 6.4.9s3.1 1.5 4.2 2.6c1 1.1 1.8 2.7 2.2 4.3.5 1.6.7 3.4.7 5.4v19.9c-1.2.3-3 .6-5.4.9-2.4.4-5.1.5-8.1.5-2 0-3.8-.2-5.5-.6-1.7-.4-3.1-1-4.2-1.8-1.2-.8-2.1-1.9-2.7-3.3-.7-1.3-1-3.2-1-5.2 0-1.9.4-3.1 1.1-4.4.8-1.3 1.8-2.4 3-3.2 1.3-.8 2.7-1.4 4.4-1.8s3.4-.5 5.3-.5c.8 0 1.7.1 2.7.2.9.1 1.9.3 3 .5v-1.3c0-.9-.1-1.7-.3-2.5-.2-.8-.6-1.5-1.1-2.1-.5-.6-1.2-1.1-2.1-1.4-.9-.3-2-.6-3.3-.6-1.8 0-3.4.2-4.9.5-1.5.3-2.7.6-3.6.9l-.9-6.3c1-.3 2.4-.7 4.3-1 1.6-.4 3.6-.6 5.8-.6zm.6 28.1c2.4 0 4.1-.1 5.4-.4v-7.9c-.4-.1-1-.3-1.9-.4-.8-.1-1.7-.2-2.7-.2-.8 0-1.7.1-2.6.2-.9.1-1.7.4-2.4.7s-1.3.8-1.7 1.4c-.4.6-.6 1-.6 1.9 0 1.8.6 2.9 1.8 3.6s2.8 1.1 4.7 1.1zm31.3 6.3C122 55.2 122 44.9 122 43.2V6.7l7.7-1.2v36.3c0 .9 0 6.8 5 6.8l-.1 6.5z"/></svg>