<?xml version="1.0" encoding="utf-8"?>
<!-- Author: liuyib https://github.com/liuyib -->
<svg xmlns="http://www.w3.org/2000/svg" viewBox="0 0 100 100" width="50px" height="50px" x="0px" y="0px"><rect width="7" height="16" x="46.5" y="9" fill="#888" rx="37.2" ry="7.2"><animate attributeName="opacity" begin="-0.9230769230769231s" dur="1s" keyTimes="0;1" repeatCount="indefinite" values="1;0"/></rect><rect width="7" height="16" x="46.5" y="9" fill="#888" rx="37.2" ry="7.2" transform="rotate(27.692 50 50)"><animate attributeName="opacity" begin="-0.8461538461538461s" dur="1s" keyTimes="0;1" repeatCount="indefinite" values="1;0"/></rect><rect width="7" height="16" x="46.5" y="9" fill="#888" rx="37.2" ry="7.2" transform="rotate(55.385 50 50)"><animate attributeName="opacity" begin="-0.7692307692307693s" dur="1s" keyTimes="0;1" repeatCount="indefinite" values="1;0"/></rect><rect width="7" height="16" x="46.5" y="9" fill="#888" rx="37.2" ry="7.2" transform="rotate(83.077 50 50)"><animate attributeName="opacity" begin="-0.6923076923076923s" dur="1s" keyTimes="0;1" repeatCount="indefinite" values="1;0"/></rect><rect width="7" height="16" x="46.5" y="9" fill="#888" rx="37.2" ry="7.2" transform="rotate(110.77 50 50)"><animate attributeName="opacity" begin="-0.6153846153846154s" dur="1s" keyTimes="0;1" repeatCount="indefinite" values="1;0"/></rect><rect width="7" height="16" x="46.5" y="9" fill="#888" rx="37.2" ry="7.2" transform="rotate(138.462 50 50)"><animate attributeName="opacity" begin="-0.5384615384615384s" dur="1s" keyTimes="0;1" repeatCount="indefinite" values="1;0"/></rect><rect width="7" height="16" x="46.5" y="9" fill="#888" rx="37.2" ry="7.2" transform="rotate(166.154 50 50)"><animate attributeName="opacity" begin="-0.46153846153846156s" dur="1s" keyTimes="0;1" repeatCount="indefinite" values="1;0"/></rect><rect width="7" height="16" x="46.5" y="9" fill="#888" rx="37.2" ry="7.2" transform="rotate(193.846 50 50)"><animate attributeName="opacity" begin="-0.38461538461538464s" dur="1s" keyTimes="0;1" repeatCount="indefinite" values="1;0"/></rect><rect width="7" height="16" x="46.5" y="9" fill="#888" rx="37.2" ry="7.2" transform="rotate(221.538 50 50)"><animate attributeName="opacity" begin="-0.3076923076923077s" dur="1s" keyTimes="0;1" repeatCount="indefinite" values="1;0"/></rect><rect width="7" height="16" x="46.5" y="9" fill="#888" rx="37.2" ry="7.2" transform="rotate(249.23 50 50)"><animate attributeName="opacity" begin="-0.23076923076923078s" dur="1s" keyTimes="0;1" repeatCount="indefinite" values="1;0"/></rect><rect width="7" height="16" x="46.5" y="9" fill="#888" rx="37.2" ry="7.2" transform="rotate(276.923 50 50)"><animate attributeName="opacity" begin="-0.15384615384615385s" dur="1s" keyTimes="0;1" repeatCount="indefinite" values="1;0"/></rect><rect width="7" height="16" x="46.5" y="9" fill="#888" rx="37.2" ry="7.2" transform="rotate(304.615 50 50)"><animate attributeName="opacity" begin="-0.07692307692307693s" dur="1s" keyTimes="0;1" repeatCount="indefinite" values="1;0"/></rect><rect width="7" height="16" x="46.5" y="9" fill="#888" rx="37.2" ry="7.2" transform="rotate(332.308 50 50)"><animate attributeName="opacity" begin="0s" dur="1s" keyTimes="0;1" repeatCount="indefinite" values="1;0"/></rect></svg>